 <svg version="1.0" xmlns="http://www.w3.org/2000/svg"  width="300.000000pt" height="117.000000pt" viewBox="0 0 300.000000 117.000000"  preserveAspectRatio="xMidYMid meet">  <g transform="translate(0.000000,117.000000) scale(0.100000,-0.100000)" fill="#000000" stroke="none"> <path d="M2395 998 c-7 -18 -95 -213 -195 -433 -100 -220 -184 -406 -187 -413 -4 -10 7 -12 47 -10 l53 3 129 285 c71 157 131 286 133 288 1 1 82 -27 179 -64 97 -37 174 -70 171 -73 -3 -3 -86 -35 -183 -72 l-177 -66 -3 -61 -3 -61 173 71 c95 39 209 86 253 104 l80 32 3 54 3 55 -203 83 c-112 45 -213 88 -225 94 l-22 11 44 98 c25 54 45 100 45 103 0 2 -23 4 -51 4 -47 0 -51 -2 -64 -32z m75 -8 c0 -5 -11 -34 -25 -64 -46 -102 -47 -104 -22 -120 12 -8 94 -44 182 -81 252 -103 245 -99 245 -139 0 -43 -5 -47 -215 -130 -93 -38 -183 -74 -199 -82 -45 -22 -56 -18 -56 19 l0 34 118 43 c141 52 237 95 246 109 9 14 -25 34 -129 72 -49 18 -95 36 -101 40 -19 15 -136 48 -149 43 -7 -3 -26 -38 -43 -77 -17 -40 -47 -107 -67 -149 -19 -43 -62 -137 -95 -210 -55 -125 -61 -133 -89 -136 l-30 -3 15 36 c8 21 19 45 24 54 6 9 70 151 144 316 213 477 192 435 221 435 14 0 25 -4 25 -10z"/> <path d="M1240 613 l0 -303 45 0 45 0 0 299 0 299 -45 4 -45 3 0 -302z m70 -3 l0 -280 -25 0 -25 0 0 280 0 280 25 0 25 0 0 -280z"/> <path d="M770 610 l0 -300 50 0 50 0 0 105 0 105 78 0 c42 0 94 5 114 10 108 30 167 160 123 267 -40 95 -84 113 -270 113 l-145 0 0 -300z m284 275 c57 -9 112 -68 121 -128 14 -90 -16 -161 -81 -192 -25 -12 -70 -19 -128 -22 -50 -2 -96 -9 -103 -15 -9 -7 -13 -41 -13 -104 l0 -94 -30 0 -31 0 1 280 2 279 86 4 c92 3 113 2 176 -8z"/> <path d="M858 844 c-5 -4 -8 -62 -8 -130 0 -140 -4 -134 96 -134 105 0 156 31 172 106 12 57 -4 110 -42 137 -25 18 -47 23 -121 25 -49 2 -93 0 -97 -4z m186 -24 c36 -13 59 -54 58 -105 -1 -85 -43 -115 -162 -115 l-70 0 0 115 0 115 74 0 c41 0 86 -4 100 -10z"/> <path d="M377 737 l-247 -102 2 -54 3 -54 250 -104 c138 -56 251 -103 253 -103 1 0 2 27 2 59 0 38 -4 61 -12 64 -86 32 -358 127 -367 127 -38 0 12 23 184 85 l195 69 0 58 c0 32 -3 58 -7 57 -5 0 -119 -46 -256 -102z m239 23 c0 -15 -7 -25 -16 -25 -8 0 -18 -3 -21 -8 -3 -4 -14 -9 -25 -12 -24 -5 -278 -101 -304 -115 -23 -13 -16 -37 13 -46 12 -3 36 -12 52 -19 17 -7 91 -35 165 -62 l135 -48 1 -37 c0 -21 -1 -38 -3 -38 -2 0 -23 9 -45 20 -23 11 -45 20 -50 20 -4 0 -31 11 -60 25 -29 13 -98 42 -153 64 -165 65 -156 59 -153 105 l3 41 80 30 c44 16 82 32 85 35 3 3 55 25 115 49 61 24 123 49 140 57 34 15 44 6 41 -36z"/> <path d="M1622 587 l-57 -178 -56 173 -56 173 -50 3 -51 3 83 -227 c71 -196 81 -232 73 -256 -13 -37 -51 -62 -81 -54 -20 5 -24 0 -34 -34 -10 -40 -10 -40 22 -46 65 -12 132 22 164 83 6 12 53 136 104 276 l94 255 -49 4 -49 3 -57 -178z m-133 -6 c51 -157 73 -200 91 -171 5 8 32 85 60 172 50 153 53 158 80 158 l27 0 -68 -187 c-113 -312 -119 -326 -141 -350 -25 -26 -88 -49 -112 -40 -19 7 -10 37 11 37 46 0 99 62 96 112 -1 10 -31 98 -67 196 -85 232 -85 232 -53 232 23 0 28 -10 76 -159z"/> <path d="M1800 538 l0 -228 45 0 45 0 0 155 0 155 29 32 c25 28 35 32 77 32 l49 0 0 44 0 44 -50 -5 c-41 -4 -54 -10 -80 -40 l-31 -35 4 33 c4 33 4 33 -42 36 l-46 4 0 -227z m220 192 c0 -12 -7 -20 -17 -21 -38 -1 -63 -10 -84 -26 -42 -36 -49 -65 -49 -213 l0 -140 -25 0 -25 0 0 204 0 204 25 0 c19 0 25 -6 25 -24 0 -38 18 -38 60 0 46 41 90 49 90 16z"/> </g> </svg> 